# xmcd CD database file
#
# Track frame offsets:
#	150
#	14400
#	35833
#	55748
#	68916
#	87599
#	102600
#	120496
#	135932
#	155112
#	170052
#	185057
#	199545
#
# Disc length: 3098 seconds
#
# Revision: 1
# Processed by: cddbd v1.5.2PL0 Copyright (c) Steve Scherf et al.
# Submitted via: CDex 1.79
#
DISCID=bc0c180d
DTITLE=Steve Azar - Slide On Over Here
DYEAR=2009
DGENRE=Country
TTITLE0=I'll Find Me
TTITLE1=Sunshine
TTITLE2=All I Need
TTITLE3=Moo La Moo
TTITLE4=Hard Road
TTITLE5=Back To Memphis
TTITLE6=Apart At The Seams
TTITLE7=Sinkin' Or Swimmin' (With You)
TTITLE8=Take Your Time (Ryan's Song)
TTITLE9=Let Go Of The Rope
TTITLE10=Sweet Delta Chains
TTITLE11=Startin' Today
TTITLE12=Beautiful Regret
EXTD=YEAR: 2009
EXTT0=
EXTT1=
EXTT2=
EXTT3=
EXTT4=
EXTT5=
EXTT6=
EXTT7=
EXTT8=
EXTT9=
EXTT10=
EXTT11=
EXTT12=
PLAYORDER=
